<?xml version="1.0" encoding="utf-8"?>
<!-- Generator: Adobe Illustrator 16.0.0, SVG Export Plug-In . SVG Version: 6.00 Build 0)  -->
<!DOCTYPE svg PUBLIC "-//W3C//DTD SVG 1.1//EN" "http://www.w3.org/Graphics/SVG/1.1/DTD/svg11.dtd">
<svg version="1.1" id="Layer_1" xmlns="http://www.w3.org/2000/svg" xmlns:xlink="http://www.w3.org/1999/xlink" x="0px" y="0px"
	 width="200px" height="190px" viewBox="0 0 200 190" enable-background="new 0 0 200 190" xml:space="preserve">
<g>
	<path fill="#FFFFFF" d="M4.671,168.67h1.61c0.173,0,0.316,0.043,0.43,0.13c0.113,0.087,0.19,0.196,0.23,0.33l2.96,9.96
		c0.053,0.18,0.102,0.373,0.145,0.58c0.043,0.207,0.085,0.424,0.125,0.65c0.046-0.227,0.093-0.445,0.14-0.655
		c0.047-0.21,0.1-0.401,0.16-0.575l3.37-9.96c0.04-0.113,0.118-0.218,0.235-0.315c0.117-0.096,0.258-0.145,0.425-0.145h0.56
		c0.173,0,0.315,0.043,0.425,0.13s0.188,0.196,0.235,0.33l3.35,9.96c0.12,0.347,0.227,0.744,0.32,1.189
		c0.04-0.219,0.077-0.43,0.11-0.629c0.033-0.2,0.076-0.387,0.13-0.561l2.97-9.96c0.034-0.12,0.108-0.227,0.225-0.319
		c0.117-0.094,0.258-0.141,0.425-0.141h1.51L20.291,183h-1.74l-3.63-10.93c-0.074-0.207-0.14-0.447-0.2-0.721
		c-0.033,0.134-0.065,0.262-0.095,0.385c-0.03,0.124-0.062,0.236-0.095,0.336L10.881,183h-1.74L4.671,168.67z"/>
	<path fill="#FFFFFF" d="M30.151,172.71c0.74,0,1.408,0.124,2.005,0.37s1.104,0.597,1.52,1.05c0.417,0.454,0.737,1.002,0.96,1.646
		c0.223,0.643,0.335,1.361,0.335,2.154c0,0.801-0.112,1.521-0.335,2.16c-0.223,0.641-0.543,1.188-0.96,1.641
		s-0.923,0.801-1.52,1.045c-0.597,0.242-1.265,0.365-2.005,0.365c-0.74,0-1.409-0.123-2.005-0.365
		c-0.597-0.244-1.105-0.592-1.525-1.045c-0.42-0.453-0.743-1-0.97-1.641c-0.227-0.64-0.34-1.359-0.34-2.16
		c0-0.793,0.113-1.512,0.34-2.154c0.227-0.644,0.55-1.191,0.97-1.646c0.42-0.453,0.929-0.804,1.525-1.05
		C28.743,172.834,29.411,172.71,30.151,172.71z M30.151,181.75c1,0,1.747-0.335,2.24-1.005c0.494-0.67,0.74-1.604,0.74-2.806
		c0-1.206-0.247-2.146-0.74-2.819c-0.493-0.673-1.24-1.011-2.24-1.011c-0.507,0-0.947,0.088-1.32,0.261
		c-0.374,0.173-0.685,0.423-0.935,0.75s-0.437,0.729-0.56,1.205c-0.124,0.477-0.185,1.015-0.185,1.614
		c0,0.601,0.062,1.137,0.185,1.61c0.123,0.474,0.31,0.872,0.56,1.195s0.562,0.571,0.935,0.745
		C29.205,181.664,29.645,181.75,30.151,181.75z"/>
	<path fill="#FFFFFF" d="M37.171,183v-10.13h1.02c0.193,0,0.327,0.036,0.4,0.11c0.073,0.072,0.124,0.199,0.15,0.379l0.12,1.58
		c0.347-0.706,0.775-1.258,1.285-1.654c0.51-0.396,1.108-0.596,1.795-0.596c0.28,0,0.533,0.032,0.76,0.096
		c0.227,0.063,0.437,0.151,0.63,0.265l-0.23,1.33c-0.047,0.167-0.15,0.25-0.31,0.25c-0.094,0-0.237-0.031-0.43-0.095
		s-0.463-0.096-0.81-0.096c-0.62,0-1.138,0.181-1.555,0.541c-0.417,0.359-0.765,0.883-1.045,1.569V183H37.171z"/>
	<path fill="#FFFFFF" d="M47.082,168.27v8.67h0.46c0.133,0,0.243-0.018,0.33-0.055c0.086-0.036,0.183-0.111,0.29-0.225l3.2-3.43
		c0.1-0.107,0.2-0.193,0.3-0.26c0.1-0.067,0.233-0.101,0.4-0.101h1.62l-3.73,3.97c-0.094,0.113-0.185,0.213-0.275,0.301
		c-0.09,0.086-0.191,0.162-0.305,0.229c0.12,0.08,0.228,0.171,0.325,0.274s0.188,0.223,0.275,0.355l3.96,5h-1.6
		c-0.147,0-0.272-0.028-0.375-0.085c-0.104-0.057-0.202-0.146-0.295-0.265l-3.33-4.15c-0.1-0.141-0.2-0.231-0.3-0.275
		c-0.1-0.043-0.25-0.064-0.45-0.064h-0.5V183h-1.79v-14.73H47.082z"/>
	<path fill="#FFFFFF" d="M71.471,183h-1.95v-6.52h-7.72V183h-1.95v-14.33h1.95v6.391h7.72v-6.391h1.95V183z"/>
	<path fill="#FFFFFF" d="M82.131,183h-0.79c-0.173,0-0.313-0.026-0.42-0.08c-0.106-0.053-0.177-0.166-0.21-0.34l-0.2-0.939
		c-0.267,0.239-0.526,0.455-0.78,0.645s-0.52,0.35-0.8,0.48c-0.28,0.129-0.579,0.229-0.895,0.295c-0.317,0.066-0.668,0.1-1.055,0.1
		c-0.394,0-0.762-0.056-1.105-0.166c-0.343-0.109-0.642-0.275-0.895-0.496s-0.455-0.5-0.605-0.838s-0.225-0.738-0.225-1.199
		c0-0.401,0.11-0.787,0.33-1.159c0.22-0.371,0.575-0.7,1.065-0.988c0.49-0.288,1.132-0.523,1.925-0.708
		c0.793-0.184,1.763-0.275,2.91-0.275v-0.795c0-0.791-0.168-1.391-0.505-1.797c-0.337-0.405-0.835-0.608-1.495-0.608
		c-0.433,0-0.798,0.056-1.095,0.165c-0.297,0.109-0.554,0.233-0.77,0.37c-0.217,0.137-0.404,0.26-0.56,0.37
		c-0.157,0.109-0.312,0.165-0.465,0.165c-0.12,0-0.225-0.032-0.315-0.095c-0.09-0.064-0.162-0.143-0.215-0.235l-0.32-0.57
		c0.56-0.54,1.163-0.942,1.81-1.21c0.646-0.267,1.363-0.4,2.15-0.4c0.566,0,1.07,0.094,1.51,0.281c0.44,0.186,0.81,0.445,1.11,0.779
		c0.3,0.334,0.526,0.736,0.68,1.21s0.23,0.993,0.23,1.56V183z M77.511,181.91c0.313,0,0.6-0.031,0.86-0.096
		c0.26-0.063,0.505-0.152,0.735-0.27s0.45-0.258,0.66-0.425s0.415-0.356,0.615-0.57v-2.09c-0.82,0-1.517,0.052-2.09,0.155
		c-0.574,0.105-1.04,0.24-1.4,0.408c-0.36,0.168-0.622,0.365-0.785,0.594c-0.164,0.228-0.245,0.482-0.245,0.764
		c0,0.269,0.043,0.5,0.13,0.694c0.087,0.194,0.204,0.354,0.35,0.478c0.146,0.125,0.32,0.215,0.52,0.271
		C77.061,181.881,77.277,181.91,77.511,181.91z"/>
	<path fill="#FFFFFF" d="M84.831,183v-10.13h1.02c0.193,0,0.327,0.036,0.4,0.11c0.073,0.072,0.124,0.199,0.15,0.379l0.12,1.58
		c0.347-0.706,0.775-1.258,1.285-1.654c0.51-0.396,1.108-0.596,1.795-0.596c0.28,0,0.533,0.032,0.76,0.096
		c0.227,0.063,0.437,0.151,0.63,0.265l-0.23,1.33c-0.047,0.167-0.15,0.25-0.31,0.25c-0.094,0-0.237-0.031-0.43-0.095
		s-0.463-0.096-0.81-0.096c-0.62,0-1.138,0.181-1.555,0.541c-0.417,0.359-0.765,0.883-1.045,1.569V183H84.831z"/>
	<path fill="#FFFFFF" d="M100.021,183c-0.253,0-0.413-0.123-0.48-0.37l-0.16-1.229c-0.434,0.526-0.929,0.948-1.485,1.265
		c-0.557,0.317-1.195,0.476-1.915,0.476c-0.58,0-1.106-0.112-1.58-0.336c-0.474-0.223-0.877-0.551-1.21-0.984
		c-0.333-0.434-0.59-0.974-0.77-1.62c-0.18-0.647-0.27-1.39-0.27-2.229c0-0.747,0.1-1.442,0.3-2.086
		c0.2-0.643,0.488-1.201,0.865-1.675c0.377-0.474,0.835-0.845,1.375-1.114c0.54-0.271,1.153-0.406,1.84-0.406
		c0.62,0,1.15,0.105,1.59,0.315s0.833,0.505,1.18,0.886v-5.621h1.78V183H100.021z M96.571,181.7c0.58,0,1.088-0.134,1.525-0.4
		s0.838-0.644,1.205-1.13v-4.9c-0.327-0.439-0.685-0.748-1.075-0.924c-0.39-0.178-0.822-0.266-1.295-0.266
		c-0.947,0-1.673,0.336-2.18,1.01c-0.506,0.674-0.76,1.634-0.76,2.881c0,0.659,0.057,1.225,0.17,1.694s0.28,0.856,0.5,1.16
		s0.49,0.524,0.81,0.665C95.791,181.63,96.157,181.7,96.571,181.7z"/>
	<path fill="#FFFFFF" d="M103.551,181.77c0-0.152,0.028-0.298,0.085-0.435s0.136-0.257,0.239-0.36s0.229-0.185,0.375-0.244
		c0.146-0.061,0.307-0.09,0.48-0.09c0.2,0,0.378,0.036,0.535,0.109c0.156,0.073,0.286,0.175,0.39,0.305
		c0.104,0.131,0.182,0.28,0.235,0.45c0.053,0.17,0.08,0.354,0.08,0.556c0,0.299-0.044,0.611-0.13,0.935
		c-0.087,0.323-0.211,0.644-0.37,0.96c-0.16,0.316-0.358,0.625-0.596,0.925c-0.236,0.3-0.505,0.577-0.805,0.83l-0.3-0.29
		c-0.087-0.08-0.13-0.174-0.13-0.279c0-0.088,0.046-0.178,0.14-0.271c0.066-0.073,0.151-0.172,0.255-0.295
		c0.104-0.124,0.208-0.265,0.315-0.425c0.106-0.16,0.205-0.337,0.295-0.53s0.155-0.399,0.195-0.62h-0.131
		c-0.173,0-0.33-0.029-0.47-0.09s-0.262-0.145-0.365-0.256c-0.104-0.109-0.183-0.239-0.239-0.389
		C103.579,182.115,103.551,181.95,103.551,181.77z"/>
	<path fill="#FFFFFF" d="M114.58,177.641V183h-1.93v-14.33h4.229c0.906,0,1.695,0.105,2.365,0.314
		c0.67,0.211,1.225,0.51,1.665,0.896c0.439,0.387,0.769,0.854,0.984,1.399c0.217,0.547,0.325,1.157,0.325,1.83
		c0,0.668-0.116,1.277-0.35,1.83c-0.233,0.555-0.575,1.031-1.025,1.431s-1.008,0.712-1.675,0.935
		c-0.667,0.224-1.43,0.336-2.29,0.336H114.58z M114.58,176.1h2.3c0.554,0,1.042-0.072,1.465-0.22
		c0.424-0.146,0.778-0.352,1.065-0.614c0.286-0.264,0.503-0.579,0.649-0.945c0.146-0.367,0.221-0.771,0.221-1.211
		c0-0.912-0.282-1.626-0.846-2.139c-0.563-0.514-1.415-0.771-2.555-0.771h-2.3V176.1z"/>
	<path fill="#FFFFFF" d="M126.37,168.27V183h-1.78v-14.73H126.37z"/>
	<path fill="#FFFFFF" d="M136.95,183h-0.79c-0.174,0-0.313-0.026-0.42-0.08c-0.107-0.053-0.177-0.166-0.21-0.34l-0.2-0.939
		c-0.267,0.239-0.527,0.455-0.78,0.645c-0.254,0.189-0.52,0.35-0.8,0.48c-0.28,0.129-0.579,0.229-0.896,0.295s-0.668,0.1-1.055,0.1
		c-0.394,0-0.762-0.056-1.105-0.166c-0.343-0.109-0.642-0.275-0.895-0.496c-0.254-0.221-0.455-0.5-0.605-0.838
		c-0.149-0.338-0.225-0.738-0.225-1.199c0-0.401,0.11-0.787,0.33-1.159c0.22-0.371,0.575-0.7,1.065-0.988
		c0.489-0.288,1.131-0.523,1.925-0.708c0.793-0.184,1.763-0.275,2.91-0.275v-0.795c0-0.791-0.169-1.391-0.506-1.797
		c-0.336-0.405-0.835-0.608-1.494-0.608c-0.434,0-0.799,0.056-1.096,0.165s-0.553,0.233-0.77,0.37s-0.403,0.26-0.561,0.37
		c-0.156,0.109-0.312,0.165-0.465,0.165c-0.12,0-0.225-0.032-0.314-0.095c-0.09-0.064-0.162-0.143-0.215-0.235l-0.32-0.57
		c0.56-0.54,1.163-0.942,1.81-1.21c0.646-0.267,1.363-0.4,2.15-0.4c0.566,0,1.07,0.094,1.51,0.281
		c0.44,0.186,0.811,0.445,1.11,0.779s0.526,0.736,0.68,1.21s0.23,0.993,0.23,1.56V183z M132.33,181.91
		c0.313,0,0.6-0.031,0.859-0.096c0.261-0.063,0.505-0.152,0.735-0.27s0.45-0.258,0.66-0.425s0.415-0.356,0.615-0.57v-2.09
		c-0.82,0-1.518,0.052-2.091,0.155c-0.573,0.105-1.04,0.24-1.399,0.408c-0.36,0.168-0.622,0.365-0.785,0.594
		c-0.163,0.228-0.245,0.482-0.245,0.764c0,0.269,0.043,0.5,0.13,0.694s0.203,0.354,0.351,0.478c0.146,0.125,0.319,0.215,0.52,0.271
		S132.097,181.91,132.33,181.91z"/>
	<path fill="#FFFFFF" d="M142.3,185.99c-0.06,0.133-0.135,0.24-0.225,0.32s-0.229,0.119-0.415,0.119h-1.32l1.851-4.02l-4.181-9.54
		h1.54c0.153,0,0.273,0.038,0.36,0.114c0.087,0.077,0.15,0.162,0.19,0.256l2.71,6.38c0.06,0.146,0.111,0.294,0.154,0.44
		c0.044,0.146,0.082,0.297,0.115,0.449c0.047-0.152,0.094-0.303,0.14-0.449c0.047-0.146,0.101-0.297,0.16-0.451l2.63-6.369
		c0.04-0.107,0.108-0.195,0.205-0.266s0.202-0.104,0.315-0.104h1.42L142.3,185.99z"/>
	<path fill="#FFFFFF" d="M165.33,183h-1.95v-6.52h-7.72V183h-1.95v-14.33h1.95v6.391h7.72v-6.391h1.95V183z"/>
	<path fill="#FFFFFF" d="M175.99,183h-0.79c-0.174,0-0.313-0.026-0.42-0.08c-0.107-0.053-0.177-0.166-0.21-0.34l-0.2-0.939
		c-0.267,0.239-0.527,0.455-0.78,0.645c-0.254,0.189-0.52,0.35-0.8,0.48c-0.28,0.129-0.579,0.229-0.896,0.295s-0.668,0.1-1.055,0.1
		c-0.394,0-0.762-0.056-1.105-0.166c-0.343-0.109-0.642-0.275-0.895-0.496c-0.254-0.221-0.455-0.5-0.605-0.838
		c-0.149-0.338-0.225-0.738-0.225-1.199c0-0.401,0.11-0.787,0.33-1.159c0.22-0.371,0.575-0.7,1.065-0.988
		c0.489-0.288,1.131-0.523,1.925-0.708c0.793-0.184,1.763-0.275,2.91-0.275v-0.795c0-0.791-0.169-1.391-0.506-1.797
		c-0.336-0.405-0.835-0.608-1.494-0.608c-0.434,0-0.799,0.056-1.096,0.165s-0.553,0.233-0.77,0.37s-0.403,0.26-0.561,0.37
		c-0.156,0.109-0.312,0.165-0.465,0.165c-0.12,0-0.225-0.032-0.314-0.095c-0.09-0.064-0.162-0.143-0.215-0.235l-0.32-0.57
		c0.56-0.54,1.163-0.942,1.81-1.21c0.646-0.267,1.363-0.4,2.15-0.4c0.566,0,1.07,0.094,1.51,0.281
		c0.44,0.186,0.811,0.445,1.11,0.779s0.526,0.736,0.68,1.21s0.23,0.993,0.23,1.56V183z M171.37,181.91
		c0.313,0,0.6-0.031,0.859-0.096c0.261-0.063,0.505-0.152,0.735-0.27s0.45-0.258,0.66-0.425s0.415-0.356,0.615-0.57v-2.09
		c-0.82,0-1.518,0.052-2.091,0.155c-0.573,0.105-1.04,0.24-1.399,0.408c-0.36,0.168-0.622,0.365-0.785,0.594
		c-0.163,0.228-0.245,0.482-0.245,0.764c0,0.269,0.043,0.5,0.13,0.694s0.203,0.354,0.351,0.478c0.146,0.125,0.319,0.215,0.52,0.271
		S171.137,181.91,171.37,181.91z"/>
	<path fill="#FFFFFF" d="M178.689,183v-10.13h1.021c0.192,0,0.326,0.036,0.399,0.11c0.073,0.072,0.123,0.199,0.15,0.379l0.12,1.58
		c0.346-0.706,0.774-1.258,1.284-1.654c0.511-0.396,1.108-0.596,1.796-0.596c0.279,0,0.533,0.032,0.76,0.096s0.437,0.151,0.63,0.265
		l-0.23,1.33c-0.046,0.167-0.149,0.25-0.31,0.25c-0.094,0-0.236-0.031-0.43-0.095s-0.464-0.096-0.811-0.096
		c-0.62,0-1.139,0.181-1.555,0.541c-0.417,0.359-0.766,0.883-1.045,1.569V183H178.689z"/>
	<path fill="#FFFFFF" d="M193.879,183c-0.253,0-0.413-0.123-0.479-0.37l-0.16-1.229c-0.434,0.526-0.929,0.948-1.485,1.265
		c-0.557,0.317-1.195,0.476-1.915,0.476c-0.58,0-1.106-0.112-1.58-0.336c-0.474-0.223-0.876-0.551-1.21-0.984
		c-0.333-0.434-0.59-0.974-0.77-1.62c-0.181-0.647-0.271-1.39-0.271-2.229c0-0.747,0.101-1.442,0.3-2.086
		c0.2-0.643,0.488-1.201,0.865-1.675s0.835-0.845,1.375-1.114c0.54-0.271,1.153-0.406,1.84-0.406c0.62,0,1.15,0.105,1.591,0.315
		c0.439,0.21,0.833,0.505,1.18,0.886v-5.621h1.78V183H193.879z M190.429,181.7c0.58,0,1.089-0.134,1.525-0.4s0.838-0.644,1.205-1.13
		v-4.9c-0.327-0.439-0.686-0.748-1.075-0.924c-0.39-0.178-0.821-0.266-1.295-0.266c-0.946,0-1.674,0.336-2.18,1.01
		c-0.507,0.674-0.761,1.634-0.761,2.881c0,0.659,0.057,1.225,0.171,1.694c0.113,0.47,0.279,0.856,0.5,1.16
		c0.22,0.304,0.489,0.524,0.81,0.665C189.649,181.63,190.016,181.7,190.429,181.7z"/>
</g>
<g>
	<g>
		<path fill="#FFFFFF" d="M46.588,106.356v42.032h-7.969v-42.032H46.588z"/>
		<path fill="#FFFFFF" d="M85.252,118.611H77.46c-0.035-0.394-0.052-0.677-0.052-0.871c-0.188-2.359-0.718-3.844-1.574-4.451
			c-0.861-0.602-2.89-0.906-6.111-0.906c-3.772,0-6.241,0.35-7.399,1.049c-1.146,0.697-1.735,2.167-1.735,4.405
			c0,2.646,0.468,4.241,1.413,4.772c0.948,0.539,4.066,0.939,9.369,1.238c6.254,0.341,10.301,1.23,12.134,2.674
			c1.839,1.437,2.752,4.42,2.752,8.973c0,5.578-1.085,9.193-3.237,10.822c-2.149,1.633-6.908,2.445-14.248,2.445
			c-6.617,0-10.997-0.798-13.171-2.398c-2.168-1.612-3.238-4.859-3.238-9.749l-0.043-1.538h7.766l0.027,0.895
			c0,2.946,0.523,4.746,1.539,5.396c1.031,0.671,3.847,0.991,8.427,0.991c3.557,0,5.833-0.37,6.826-1.13
			c0.984-0.766,1.481-2.519,1.481-5.271c0-2.034-0.373-3.389-1.119-4.053c-0.755-0.662-2.373-1.07-4.857-1.215l-4.417-0.276
			c-6.652-0.394-10.887-1.321-12.748-2.781c-1.852-1.45-2.762-4.589-2.762-9.391c0-4.906,1.107-8.181,3.339-9.808
			c2.224-1.635,6.678-2.452,13.355-2.452c6.332,0,10.586,0.748,12.792,2.247c2.2,1.498,3.309,4.426,3.309,8.787L85.252,118.611z"/>
		<path fill="#FFFFFF" d="M126.651,106.356l-15.6,25.986v16.046h-7.966v-16.046l-15.161-25.986h9.246l6.335,11.093
			c0.367,0.609,0.951,1.745,1.803,3.416l0.884,1.689l0.856,1.692h0.227l0.896-1.692l0.892-1.689c0.745-1.521,1.351-2.666,1.82-3.416
			l6.393-11.093H126.651z"/>
		<path fill="#FFFFFF" d="M161.391,118.611h-7.808c-0.028-0.394-0.052-0.677-0.052-0.871c-0.18-2.359-0.716-3.844-1.585-4.451
			c-0.846-0.602-2.886-0.906-6.078-0.906c-3.789,0-6.254,0.35-7.411,1.049c-1.168,0.697-1.738,2.167-1.738,4.405
			c0,2.646,0.47,4.241,1.418,4.772c0.938,0.539,4.065,0.939,9.354,1.238c6.259,0.341,10.298,1.23,12.147,2.674
			c1.834,1.437,2.742,4.42,2.742,8.973c0,5.578-1.077,9.193-3.219,10.822c-2.166,1.633-6.906,2.445-14.263,2.445
			c-6.606,0-10.991-0.798-13.168-2.398c-2.164-1.612-3.245-4.859-3.245-9.749l-0.033-1.538h7.766l0.025,0.895
			c0,2.946,0.504,4.746,1.537,5.396c1.025,0.671,3.836,0.991,8.413,0.991c3.58,0,5.85-0.37,6.849-1.13
			c0.981-0.766,1.476-2.519,1.476-5.271c0-2.034-0.376-3.389-1.123-4.053c-0.745-0.662-2.372-1.07-4.857-1.215l-4.405-0.276
			c-6.646-0.394-10.906-1.321-12.742-2.781c-1.857-1.45-2.788-4.589-2.788-9.391c0-4.906,1.118-8.181,3.352-9.808
			c2.233-1.635,6.678-2.452,13.351-2.452c6.334,0,10.591,0.748,12.8,2.247c2.187,1.498,3.292,4.426,3.292,8.787L161.391,118.611z"/>
	</g>
	<polygon fill="#FFFFFF" points="61.183,30.577 72.127,75.106 99.104,92.404 97.335,57.81 	"/>
	<polygon fill="#FFFFFF" points="139.816,30.577 128.574,74.525 101.891,92.404 103.662,57.81 	"/>
	<path fill="#FFFFFF" d="M101.294,7.238L63.104,28.51l38.189,25.285L139.48,28.51L101.294,7.238z M84.558,29.426
		c0-0.028,0.009-0.249,0.062-0.607c0.044-0.361,0.134-0.87,0.288-1.468c0.156-0.594,0.382-1.285,0.701-2.026
		c0.318-0.74,0.733-1.524,1.274-2.304c0.495-0.725,1.123-1.475,1.908-2.206c0.789-0.722,1.734-1.424,2.878-2.033
		c1.141-0.611,2.48-1.129,4.036-1.497c1.561-0.367,3.341-0.583,5.376-0.583h0.136c2.823,0.009,5.14,0.604,7.026,1.484
		c1.886,0.881,3.337,2.046,4.432,3.21c1.098,1.165,1.837,2.324,2.308,3.191c0.467,0.873,0.659,1.443,0.659,1.443l-4.086,0.038
		c-0.038-0.061-0.238-0.479-0.628-1.071c-0.396-0.589-0.986-1.355-1.805-2.113c-0.82-0.762-1.864-1.515-3.182-2.083
		c-1.302-0.565-2.878-0.942-4.748-0.951h-0.104c-2.343,0-4.275,0.327-5.867,0.861c-1.586,0.534-2.837,1.272-3.824,2.097
		c-0.984,0.825-1.696,1.738-2.215,2.619c-0.519,0.879-0.845,1.73-1.053,2.427l2.777,0.019l0.009,3.21l-6.43-0.019L84.558,29.426z
		 M115.927,31.289c-0.058,0.366-0.151,0.863-0.321,1.46c-0.164,0.594-0.396,1.281-0.73,2.01c-0.328,0.729-0.751,1.504-1.298,2.278
		c-0.509,0.703-1.136,1.443-1.928,2.156c-0.782,0.711-1.729,1.393-2.865,1.986c-1.131,0.589-2.449,1.092-3.983,1.452
		c-1.541,0.356-3.289,0.565-5.287,0.565H99.38c-2.543-0.005-4.715-0.571-6.549-1.416c-1.831-0.841-3.326-1.968-4.498-3.094
		c-1.174-1.127-2.034-2.252-2.591-3.097c-0.56-0.844-0.82-1.414-0.809-1.414h3.563c0.037,0.065,0.277,0.465,0.73,1.032
		c0.455,0.572,1.118,1.307,2.013,2.031c0.886,0.727,2.014,1.449,3.362,1.987c1.358,0.537,2.946,0.895,4.79,0.905h0.123
		c2.312,0,4.219-0.32,5.794-0.839c1.571-0.517,2.815-1.246,3.797-2.053c0.978-0.813,1.696-1.708,2.226-2.581
		c0.526-0.867,0.863-1.707,1.072-2.403l-2.956-0.02l0.03-3.212l6.637,0.026l-0.11,1.63C115.998,30.71,115.982,30.93,115.927,31.289z
		"/>
</g>
</svg>
